<svg xmlns="http://www.w3.org/2000/svg" viewBox="0 0 1600 1000" role="img" aria-label="">
  <defs>
    <linearGradient id="sky" x1="0%" y1="0%" x2="100%" y2="100%">
      <stop offset="0%" stop-color="#0b3959"/>
      <stop offset="45%" stop-color="#1a5a7a"/>
      <stop offset="100%" stop-color="#b36d18"/>
    </linearGradient>
    <linearGradient id="glow" x1="50%" y1="100%" x2="50%" y2="0%">
      <stop offset="0%" stop-color="#fff7e7" stop-opacity="0.15"/>
      <stop offset="100%" stop-color="#fff7e7" stop-opacity="0"/>
    </linearGradient>
    <radialGradient id="sun" cx="75%" cy="25%" r="35%">
      <stop offset="0%" stop-color="#ffb347" stop-opacity="0.9"/>
      <stop offset="100%" stop-color="#b36d18" stop-opacity="0"/>
    </radialGradient>
  </defs>
  <rect width="1600" height="1000" fill="url(#sky)"/>
  <rect width="1600" height="1000" fill="url(#sun)"/>
  <ellipse cx="800" cy="920" rx="900" ry="280" fill="#1c3d2a" opacity="0.55"/>
  <ellipse cx="400" cy="880" rx="500" ry="200" fill="#2d5a3d" opacity="0.45"/>
  <ellipse cx="1200" cy="900" rx="450" ry="180" fill="#234832" opacity="0.5"/>
  <path d="M0 720 Q200 680 400 710 T800 700 T1200 715 T1600 690 L1600 1000 L0 1000 Z" fill="#0f2a1c" opacity="0.7"/>
  <g opacity="0.25" fill="#fbefdb">
    <circle cx="180" cy="180" r="3"/><circle cx="320" cy="120" r="2"/><circle cx="450" cy="200" r="2.5"/>
    <circle cx="1100" cy="150" r="3"/><circle cx="1280" cy="90" r="2"/><circle cx="1400" cy="220" r="2"/>
  </g>
  <rect width="1600" height="1000" fill="url(#glow)"/>
</svg>
